# 3ds Max Wavefront OBJ Exporter v0.97b - (c)2007 guruware
# File Created: 24.10.2015 15:24:14

mtllib 3way.mtl

#
# object 3way
#

v  9.0000 0.0000 90.0000
v  9.0000 0.0000 30.0000
v  -0.0000 0.0000 30.0000
v  -0.0000 0.0000 90.0000
v  9.0000 3.0000 90.0000
v  9.0000 3.0000 30.0000
v  10.0000 3.0000 90.0000
v  10.0000 3.0000 30.0000
v  10.0000 62.8141 90.0000
v  10.0000 62.8141 30.0000
v  2.2449 74.0296 90.0000
v  2.2449 74.0296 30.0000
v  -9.2332 83.0840 90.0000
v  -9.2332 83.0840 30.0000
v  -16.4293 85.9827 90.0000
v  -16.4293 85.9827 30.0000
v  -17.0000 80.0000 90.0000
v  -17.0000 80.0000 30.0000
v  -20.0000 80.0000 90.0000
v  -20.0000 80.0000 30.0000
v  -20.0000 0.0000 30.0000
v  -20.0000 0.0000 90.0000
v  -49.0000 0.0000 90.0000
v  -40.0000 0.0000 90.0000
v  -40.0000 0.0000 30.0000
v  -49.0000 0.0000 30.0000
v  -49.0000 3.0000 90.0000
v  -49.0000 3.0000 30.0000
v  -50.0000 3.0000 90.0000
v  -50.0000 3.0000 30.0000
v  -50.0000 62.8141 90.0000
v  -50.0000 62.8141 30.0000
v  -42.2449 74.0296 90.0000
v  -42.2449 74.0296 30.0000
v  -30.7669 83.0840 90.0000
v  -30.7669 83.0840 30.0000
v  -23.5708 85.9827 90.0000
v  -23.5708 85.9827 30.0000
v  -23.0000 80.0000 90.0000
v  -23.0000 80.0000 30.0000
v  10.0000 0.0000 29.0000
v  70.0000 0.0000 29.0000
v  70.0000 0.0000 20.0000
v  10.0000 0.0000 20.0000
v  10.0000 3.0000 29.0000
v  70.0000 3.0000 29.0000
v  70.0000 3.0000 30.0000
v  70.0000 62.8141 30.0000
v  10.0000 74.0296 22.2449
v  70.0000 74.0296 22.2449
v  10.0000 83.0840 10.7668
v  70.0000 83.0840 10.7668
v  10.0000 85.9827 3.5707
v  70.0000 85.9827 3.5707
v  10.0000 80.0000 3.0000
v  70.0000 80.0000 3.0000
v  10.0000 80.0000 0.0000
v  70.0000 80.0000 0.0000
v  70.0000 0.0000 0.0000
v  10.0000 0.0000 0.0000
v  10.0000 0.0000 -29.0000
v  10.0000 0.0000 -20.0000
v  70.0000 0.0000 -20.0000
v  70.0000 0.0000 -29.0000
v  10.0000 3.0000 -29.0000
v  70.0000 3.0000 -29.0000
v  10.0000 3.0000 -30.0000
v  70.0000 3.0000 -30.0000
v  10.0000 62.8141 -30.0000
v  70.0000 62.8141 -30.0000
v  10.0000 74.0296 -22.2449
v  70.0000 74.0296 -22.2449
v  10.0000 83.0840 -10.7668
v  70.0000 83.0840 -10.7668
v  10.0000 85.9827 -3.5707
v  70.0000 85.9827 -3.5707
v  10.0000 80.0000 -3.0000
v  70.0000 80.0000 -3.0000
v  9.0000 0.0000 -30.0000
v  9.0000 0.0000 -90.0000
v  -0.0000 0.0000 -90.0000
v  -0.0000 0.0000 -30.0000
v  9.0000 3.0000 -30.0000
v  9.0000 3.0000 -90.0000
v  10.0000 3.0000 -90.0000
v  10.0000 62.8141 -90.0000
v  2.2449 74.0296 -30.0000
v  2.2449 74.0296 -90.0000
v  -9.2332 83.0840 -30.0000
v  -9.2332 83.0840 -90.0000
v  -16.4293 85.9827 -30.0000
v  -16.4293 85.9827 -90.0000
v  -17.0000 80.0000 -30.0000
v  -17.0000 80.0000 -90.0000
v  -20.0000 80.0000 -30.0000
v  -20.0000 80.0000 -90.0000
v  -20.0000 0.0000 -90.0000
v  -20.0000 0.0000 -30.0000
v  -49.0000 0.0000 -30.0000
v  -40.0000 0.0000 -30.0000
v  -40.0000 0.0000 -90.0000
v  -49.0000 0.0000 -90.0000
v  -49.0000 3.0000 -30.0000
v  -49.0000 3.0000 -90.0000
v  -50.0000 3.0000 -30.0000
v  -50.0000 3.0000 -90.0000
v  -50.0000 62.8141 -30.0000
v  -50.0000 62.8141 -90.0000
v  -42.2449 74.0296 -30.0000
v  -42.2449 74.0296 -90.0000
v  -30.7669 83.0840 -30.0000
v  -30.7669 83.0840 -90.0000
v  -23.5708 85.9827 -30.0000
v  -23.5708 85.9827 -90.0000
v  -23.0000 80.0000 -30.0000
v  -23.0000 80.0000 -90.0000
# 116 vertices

vn 0.0000 1.0000 -0.0000
vn -1.0000 0.0000 -0.0000
vn -0.8225 -0.5687 -0.0000
vn -0.6193 -0.7851 -0.0000
vn -0.3736 -0.9276 -0.0000
vn 0.9955 -0.0950 -0.0000
vn 0.0000 -1.0000 -0.0000
vn 1.0000 0.0000 -0.0000
vn 0.8225 -0.5687 -0.0000
vn 0.6193 -0.7851 -0.0000
vn 0.3736 -0.9276 -0.0000
vn -0.9955 -0.0950 -0.0000
vn 0.0000 0.0000 -1.0000
vn 0.0000 -0.5687 -0.8225
vn 0.0000 -0.7851 -0.6193
vn 0.0000 -0.9276 -0.3736
vn 0.0000 -0.0950 0.9955
vn 0.0000 0.0000 1.0000
vn 0.0000 -0.5687 0.8225
vn 0.0000 -0.7851 0.6193
vn 0.0000 -0.9276 0.3736
vn 0.0000 -0.0950 -0.9955
vn -0.7071 0.0000 -0.7071
vn -0.5694 -0.5930 -0.5694
vn -0.6352 -0.4392 -0.6352
vn -0.4075 -0.8173 -0.4075
vn -0.3500 -0.8689 -0.3500
vn -0.7071 0.0000 0.7071
vn -0.6352 -0.4392 0.6352
vn -0.5265 -0.6675 0.5265
vn -0.3500 -0.8689 0.3500
vn 0.7055 -0.0673 -0.7055
vn 0.7055 -0.0673 0.7055
# 33 vertex normals

vt 0.1246 0.6534 0.0000
vt 0.1277 0.8940 0.0000
vt 0.0917 0.8943 0.0000
vt 0.0885 0.6538 0.0000
vt 0.3900 0.0985 0.0000
vt 0.2038 0.0458 0.0000
vt 0.2051 0.0363 0.0000
vt 0.3925 0.0891 0.0000
vt 0.3892 0.1016 0.0000
vt 0.2021 0.0486 0.0000
vt 0.3623 0.8440 0.0000
vt 0.2149 0.8606 0.0000
vt 0.2149 0.7136 0.0000
vt 0.3540 0.7053 0.0000
vt 0.3705 0.8688 0.0000
vt 0.2288 0.8963 0.0000
vt 0.3839 0.8985 0.0000
vt 0.2457 0.9301 0.0000
vt 0.3910 0.9153 0.0000
vt 0.2554 0.9468 0.0000
vt 0.0722 0.0610 0.0000
vt 0.1586 0.0852 0.0000
vt 0.1543 0.0927 0.0000
vt 0.0696 0.0694 0.0000
vt 0.0734 0.0570 0.0000
vt 0.1596 0.0810 0.0000
vt 0.8068 0.1437 0.0000
vt 0.8066 0.0294 0.0000
vt 0.8448 0.0293 0.0000
vt 0.8449 0.1437 0.0000
vt 0.4059 0.6809 0.0000
vt 0.4187 0.6809 0.0000
vt 0.4187 0.7661 0.0000
vt 0.4059 0.7661 0.0000
vt 0.0182 0.1220 0.0000
vt 0.0182 0.1156 0.0000
vt 0.1455 0.1154 0.0000
vt 0.1455 0.1218 0.0000
vt 0.0183 0.1241 0.0000
vt 0.1455 0.1239 0.0000
vt 0.0299 0.8201 0.0000
vt 0.0299 0.7008 0.0000
vt 0.1496 0.7007 0.0000
vt 0.1496 0.8201 0.0000
vt 0.0299 0.8473 0.0000
vt 0.1496 0.8472 0.0000
vt 0.0299 0.8765 0.0000
vt 0.1496 0.8764 0.0000
vt 0.0299 0.8920 0.0000
vt 0.1496 0.8919 0.0000
vt 0.0739 0.0527 0.0000
vt 0.0759 0.0440 0.0000
vt 0.1609 0.0677 0.0000
vt 0.1599 0.0765 0.0000
vt 0.7687 0.1437 0.0000
vt 0.7685 0.0294 0.0000
vt 0.1319 0.8981 0.0000
vt 0.3725 0.9008 0.0000
vt 0.3721 0.9368 0.0000
vt 0.1317 0.9342 0.0000
vt 0.2003 0.0458 0.0000
vt 0.0142 0.0985 0.0000
vt 0.0116 0.0891 0.0000
vt 0.1991 0.0363 0.0000
vt 0.0150 0.1016 0.0000
vt 0.0674 0.8440 0.0000
vt 0.0758 0.7053 0.0000
vt 0.2009 0.8963 0.0000
vt 0.0592 0.8688 0.0000
vt 0.1840 0.9301 0.0000
vt 0.0458 0.8985 0.0000
vt 0.1743 0.9468 0.0000
vt 0.0387 0.9153 0.0000
vt 0.2000 0.1260 0.0000
vt 0.2004 0.2158 0.0000
vt 0.1917 0.2163 0.0000
vt 0.1924 0.1290 0.0000
vt 0.2045 0.1258 0.0000
vt 0.2046 0.2153 0.0000
vt 0.9783 0.2009 0.0000
vt 0.8640 0.2009 0.0000
vt 0.8640 0.1627 0.0000
vt 0.9783 0.1628 0.0000
vt 0.1129 0.7135 0.0000
vt 0.1127 0.6774 0.0000
vt 0.3531 0.6748 0.0000
vt 0.3535 0.7108 0.0000
vt 0.2047 0.0199 0.0000
vt 0.2060 0.0101 0.0000
vt 0.3978 0.0649 0.0000
vt 0.3951 0.0745 0.0000
vt 0.2029 0.0227 0.0000
vt 0.3943 0.0777 0.0000
vt 0.2172 0.8656 0.0000
vt 0.2172 0.7204 0.0000
vt 0.3546 0.7122 0.0000
vt 0.3628 0.8492 0.0000
vt 0.2310 0.9008 0.0000
vt 0.3709 0.8737 0.0000
vt 0.2477 0.9343 0.0000
vt 0.3842 0.9030 0.0000
vt 0.2572 0.9507 0.0000
vt 0.3912 0.9197 0.0000
vt 0.2091 0.1260 0.0000
vt 0.2167 0.1290 0.0000
vt 0.2175 0.2163 0.0000
vt 0.2087 0.2158 0.0000
vt 0.9783 0.2390 0.0000
vt 0.8640 0.2390 0.0000
vt 0.1087 0.7176 0.0000
vt 0.1056 0.9582 0.0000
vt 0.0695 0.9578 0.0000
vt 0.0726 0.7173 0.0000
vt 0.2012 0.0199 0.0000
vt 0.0108 0.0745 0.0000
vt 0.0081 0.0649 0.0000
vt 0.1998 0.0101 0.0000
vt 0.0116 0.0777 0.0000
vt 0.0715 0.8492 0.0000
vt 0.0798 0.7122 0.0000
vt 0.2034 0.9008 0.0000
vt 0.0635 0.8737 0.0000
vt 0.1867 0.9343 0.0000
vt 0.0502 0.9030 0.0000
vt 0.1771 0.9507 0.0000
vt 0.0432 0.9196 0.0000
vt 0.2504 0.0852 0.0000
vt 0.3369 0.0610 0.0000
vt 0.3395 0.0694 0.0000
vt 0.2547 0.0927 0.0000
vt 0.2495 0.0810 0.0000
vt 0.3356 0.0569 0.0000
vt 0.8066 0.3724 0.0000
vt 0.8068 0.2580 0.0000
vt 0.8449 0.2581 0.0000
vt 0.8448 0.3724 0.0000
vt 0.4059 0.8513 0.0000
vt 0.4187 0.8513 0.0000
vt 0.4187 0.9365 0.0000
vt 0.4059 0.9365 0.0000
vt 0.2728 0.1218 0.0000
vt 0.2728 0.1154 0.0000
vt 0.4001 0.1156 0.0000
vt 0.4001 0.1220 0.0000
vt 0.2728 0.1239 0.0000
vt 0.4000 0.1241 0.0000
vt 0.2693 0.8200 0.0000
vt 0.2693 0.7007 0.0000
vt 0.3890 0.7007 0.0000
vt 0.3890 0.8201 0.0000
vt 0.2693 0.8472 0.0000
vt 0.3890 0.8473 0.0000
vt 0.2693 0.8764 0.0000
vt 0.3890 0.8765 0.0000
vt 0.2693 0.8919 0.0000
vt 0.3890 0.8920 0.0000
vt 0.2492 0.0765 0.0000
vt 0.2482 0.0677 0.0000
vt 0.3332 0.0440 0.0000
vt 0.3351 0.0526 0.0000
vt 0.7685 0.3723 0.0000
vt 0.7687 0.2580 0.0000
# 162 texture coords

g 3way
usemtl _3Waywire_000000000
s off
f 1/1/1 2/2/1 3/3/1 4/4/1 
f 5/5/2 6/6/2 2/7/2 1/8/2 
f 7/9/1 8/10/1 6/6/1 5/5/1 
s 4
f 9/11/2 10/12/2 8/13/2 7/14/2 
f 11/15/3 12/16/3 10/12/3 9/11/3 
f 13/17/4 14/18/4 12/16/4 11/15/4 
f 15/19/5 16/20/5 14/18/5 13/17/5 
s off
f 17/21/6 18/22/6 16/23/6 15/24/6 
f 19/25/7 20/26/7 18/22/7 17/21/7 
s 1
f 21/27/1 22/28/1 4/29/1 3/30/1 
s off
f 23/31/1 24/32/1 25/33/1 26/34/1 
f 27/35/8 23/36/8 26/37/8 28/38/8 
f 29/39/1 27/35/1 28/38/1 30/40/1 
s 4
f 31/41/8 29/42/8 30/43/8 32/44/8 
f 33/45/9 31/41/9 32/44/9 34/46/9 
f 35/47/10 33/45/10 34/46/10 36/48/10 
f 37/49/11 35/47/11 36/48/11 38/50/11 
s off
f 39/51/12 37/52/12 38/53/12 40/54/12 
f 19/25/7 39/51/7 40/54/7 20/26/7 
s 1
f 21/27/1 25/55/1 24/56/1 22/28/1 
s off
f 41/57/1 42/58/1 43/59/1 44/60/1 
f 45/61/13 46/62/13 42/63/13 41/64/13 
f 8/10/1 47/65/1 46/62/1 45/61/1 
s 4
f 10/12/13 48/66/13 47/67/13 8/13/13 
f 49/68/14 50/69/14 48/66/14 10/12/14 
f 51/70/15 52/71/15 50/69/15 49/68/15 
f 53/72/16 54/73/16 52/71/16 51/70/16 
s off
f 55/74/17 56/75/17 54/76/17 53/77/17 
f 57/78/7 58/79/7 56/75/7 55/74/7 
s 1
f 59/80/1 60/81/1 44/82/1 43/83/1 
s off
f 61/84/1 62/85/1 63/86/1 64/87/1 
f 65/88/18 61/89/18 64/90/18 66/91/18 
f 67/92/1 65/88/1 66/91/1 68/93/1 
s 4
f 69/94/18 67/95/18 68/96/18 70/97/18 
f 71/98/19 69/94/19 70/97/19 72/99/19 
f 73/100/20 71/98/20 72/99/20 74/101/20 
f 75/102/21 73/100/21 74/101/21 76/103/21 
s off
f 77/104/22 75/105/22 76/106/22 78/107/22 
f 57/78/7 77/104/7 78/107/7 58/79/7 
s 1
f 59/80/1 63/108/1 62/109/1 60/81/1 
s off
f 79/110/1 80/111/1 81/112/1 82/113/1 
f 83/114/2 84/115/2 80/116/2 79/117/2 
f 67/92/1 85/118/1 84/115/1 83/114/1 
s 4
f 69/94/2 86/119/2 85/120/2 67/95/2 
f 87/121/3 88/122/3 86/119/3 69/94/3 
f 89/123/4 90/124/4 88/122/4 87/121/4 
f 91/125/5 92/126/5 90/124/5 89/123/5 
s off
f 93/127/6 94/128/6 92/129/6 91/130/6 
f 95/131/7 96/132/7 94/128/7 93/127/7 
s 1
f 97/133/1 98/134/1 82/135/1 81/136/1 
s off
f 99/137/1 100/138/1 101/139/1 102/140/1 
f 103/141/8 99/142/8 102/143/8 104/144/8 
f 105/145/1 103/141/1 104/144/1 106/146/1 
s 4
f 107/147/8 105/148/8 106/149/8 108/150/8 
f 109/151/9 107/147/9 108/150/9 110/152/9 
f 111/153/10 109/151/10 110/152/10 112/154/10 
f 113/155/11 111/153/11 112/154/11 114/156/11 
s off
f 115/157/12 113/158/12 114/159/12 116/160/12 
f 95/131/7 115/157/7 116/160/7 96/132/7 
s 1
f 97/133/1 101/161/1 100/162/1 98/134/1 
s 2
f 3/30/1 44/82/1 60/81/1 21/27/1 
f 2/2/1 41/57/1 44/60/1 3/3/1 
s 4
f 6/6/23 45/61/23 41/64/23 2/7/23 
s 2
f 45/61/1 6/6/1 8/10/1 
s 4
f 49/68/24 10/12/25 12/16/24 
f 14/18/26 51/70/26 49/68/24 12/16/24 
f 16/20/27 53/72/27 51/70/26 14/18/26 
s off
f 98/134/1 60/81/1 62/109/1 82/135/1 
f 79/110/1 82/113/1 62/85/1 61/84/1 
f 79/117/28 61/89/28 65/88/28 83/114/28 
f 65/88/1 67/92/1 83/114/1 
s 4
f 71/98/29 87/121/29 69/94/29 
f 71/98/30 73/100/30 89/123/30 87/121/30 
f 73/100/31 75/102/31 91/125/31 89/123/31 
s off
f 75/105/32 77/104/32 93/127/32 91/130/32 
f 55/74/33 53/77/33 16/23/33 18/22/33 
f 55/74/7 18/22/7 20/26/7 57/78/7 
f 77/104/7 57/78/7 95/131/7 93/127/7 
f 100/138/1 99/137/1 26/34/1 25/33/1 
f 99/142/8 103/141/8 28/38/8 26/37/8 
s 4
f 107/147/9 109/151/9 34/46/9 32/44/9 
f 109/151/10 111/153/10 36/48/10 34/46/10 
f 111/153/11 113/155/11 38/50/11 36/48/11 
s off
f 113/158/12 115/157/12 40/54/12 38/53/12 
f 98/134/1 100/162/1 25/55/1 21/27/1 
s 4
f 107/147/8 32/44/8 30/43/8 105/148/8 
s off
f 115/157/7 95/131/7 20/26/7 40/54/7 
f 20/26/7 95/131/7 57/78/7 
f 60/81/1 98/134/1 21/27/1 
f 105/145/1 30/40/1 28/38/1 103/141/1 
# 84 polygons - 6 triangles

