# 3ds Max Wavefront OBJ Exporter v0.97b - (c)2007 guruware
# File Created: 24.10.2015 15:30:26

mtllib 4way.mtl

#
# object 4way
#

v  20.0000 0.0000 30.0000
v  20.0000 0.0000 90.0000
v  29.0000 0.0000 90.0000
v  29.0000 0.0000 30.0000
v  29.0000 3.0000 90.0000
v  29.0000 3.0000 30.0000
v  30.0000 3.0000 90.0000
v  30.0000 3.0000 30.0000
v  30.0000 62.8141 90.0000
v  30.0000 62.8141 30.0000
v  22.2449 74.0296 90.0000
v  22.2449 74.0296 30.0000
v  10.7668 83.0840 90.0000
v  10.7668 83.0840 30.0000
v  3.5707 85.9827 90.0000
v  3.5707 85.9827 30.0000
v  3.0000 80.0000 90.0000
v  3.0000 80.0000 30.0000
v  0.0000 80.0000 90.0000
v  0.0000 80.0000 30.0000
v  0.0000 0.0000 30.0000
v  0.0000 0.0000 90.0000
v  -20.0000 0.0000 30.0000
v  -29.0000 0.0000 30.0000
v  -29.0000 0.0000 90.0000
v  -20.0000 0.0000 90.0000
v  -29.0000 3.0000 30.0000
v  -29.0000 3.0000 90.0000
v  -30.0000 3.0000 30.0000
v  -30.0000 3.0000 90.0000
v  -30.0000 62.8141 30.0000
v  -30.0000 62.8141 90.0000
v  -22.2449 74.0296 30.0000
v  -22.2449 74.0296 90.0000
v  -10.7668 83.0840 30.0000
v  -10.7668 83.0840 90.0000
v  -3.5707 85.9827 30.0000
v  -3.5707 85.9827 90.0000
v  -3.0000 80.0000 30.0000
v  -3.0000 80.0000 90.0000
v  90.0000 0.0000 20.0000
v  30.0000 0.0000 20.0000
v  30.0000 0.0000 29.0000
v  90.0000 0.0000 29.0000
v  30.0000 3.0000 29.0000
v  90.0000 3.0000 29.0000
v  90.0000 3.0000 30.0000
v  90.0000 62.8141 30.0000
v  30.0000 74.0296 22.2449
v  90.0000 74.0296 22.2449
v  30.0000 83.0840 10.7668
v  90.0000 83.0840 10.7668
v  30.0000 85.9827 3.5707
v  90.0000 85.9827 3.5707
v  30.0000 80.0000 3.0000
v  90.0000 80.0000 3.0000
v  30.0000 80.0000 -0.0000
v  90.0000 80.0000 -0.0000
v  90.0000 0.0000 -0.0000
v  30.0000 0.0000 -0.0000
v  90.0000 0.0000 -20.0000
v  90.0000 0.0000 -29.0000
v  30.0000 0.0000 -29.0000
v  30.0000 0.0000 -20.0000
v  90.0000 3.0000 -29.0000
v  30.0000 3.0000 -29.0000
v  90.0000 3.0000 -30.0000
v  30.0000 3.0000 -30.0000
v  90.0000 62.8141 -30.0000
v  30.0000 62.8141 -30.0000
v  90.0000 74.0296 -22.2449
v  30.0000 74.0296 -22.2449
v  90.0000 83.0840 -10.7668
v  30.0000 83.0840 -10.7668
v  90.0000 85.9827 -3.5707
v  30.0000 85.9827 -3.5707
v  90.0000 80.0000 -3.0000
v  30.0000 80.0000 -3.0000
v  20.0000 0.0000 -90.0000
v  20.0000 0.0000 -30.0000
v  29.0000 0.0000 -30.0000
v  29.0000 0.0000 -90.0000
v  29.0000 3.0000 -30.0000
v  29.0000 3.0000 -90.0000
v  30.0000 3.0000 -90.0000
v  30.0000 62.8141 -90.0000
v  22.2449 74.0296 -30.0000
v  22.2449 74.0296 -90.0000
v  10.7668 83.0840 -30.0000
v  10.7668 83.0840 -90.0000
v  3.5707 85.9827 -30.0000
v  3.5707 85.9827 -90.0000
v  3.0000 80.0000 -30.0000
v  3.0000 80.0000 -90.0000
v  0.0000 80.0000 -30.0000
v  0.0000 80.0000 -90.0000
v  0.0000 0.0000 -90.0000
v  0.0000 0.0000 -30.0000
v  -20.0000 0.0000 -90.0000
v  -29.0000 0.0000 -90.0000
v  -29.0000 0.0000 -30.0000
v  -20.0000 0.0000 -30.0000
v  -29.0000 3.0000 -90.0000
v  -29.0000 3.0000 -30.0000
v  -30.0000 3.0000 -90.0000
v  -30.0000 3.0000 -30.0000
v  -30.0000 62.8141 -90.0000
v  -30.0000 62.8141 -30.0000
v  -22.2449 74.0296 -90.0000
v  -22.2449 74.0296 -30.0000
v  -10.7668 83.0840 -90.0000
v  -10.7668 83.0840 -30.0000
v  -3.5707 85.9827 -90.0000
v  -3.5707 85.9827 -30.0000
v  -3.0000 80.0000 -90.0000
v  -3.0000 80.0000 -30.0000
v  -30.0000 0.0000 20.0000
v  -90.0000 0.0000 20.0000
v  -90.0000 0.0000 29.0000
v  -30.0000 0.0000 29.0000
v  -90.0000 3.0000 29.0000
v  -30.0000 3.0000 29.0000
v  -90.0000 3.0000 30.0000
v  -90.0000 62.8141 30.0000
v  -90.0000 74.0296 22.2449
v  -30.0000 74.0296 22.2449
v  -90.0000 83.0840 10.7668
v  -30.0000 83.0840 10.7668
v  -90.0000 85.9827 3.5707
v  -30.0000 85.9827 3.5707
v  -90.0000 80.0000 3.0000
v  -30.0000 80.0000 3.0000
v  -90.0000 80.0000 -0.0000
v  -30.0000 80.0000 -0.0000
v  -30.0000 0.0000 -0.0000
v  -90.0000 0.0000 -0.0000
v  -30.0000 0.0000 -20.0000
v  -30.0000 0.0000 -29.0000
v  -90.0000 0.0000 -29.0000
v  -90.0000 0.0000 -20.0000
v  -30.0000 3.0000 -29.0000
v  -90.0000 3.0000 -29.0000
v  -90.0000 3.0000 -30.0000
v  -90.0000 62.8141 -30.0000
v  -30.0000 74.0296 -22.2449
v  -90.0000 74.0296 -22.2449
v  -30.0000 83.0840 -10.7668
v  -90.0000 83.0840 -10.7668
v  -30.0000 85.9827 -3.5707
v  -90.0000 85.9827 -3.5707
v  -30.0000 80.0000 -3.0000
v  -90.0000 80.0000 -3.0000
# 152 vertices

vn 0.0000 1.0000 -0.0000
vn -1.0000 0.0000 -0.0000
vn -0.8225 -0.5687 -0.0000
vn -0.6193 -0.7851 -0.0000
vn -0.3736 -0.9276 -0.0000
vn 0.9955 -0.0950 -0.0000
vn 0.0000 -1.0000 -0.0000
vn 1.0000 0.0000 -0.0000
vn 0.8225 -0.5687 -0.0000
vn 0.6193 -0.7851 -0.0000
vn 0.3736 -0.9276 -0.0000
vn -0.9955 -0.0950 -0.0000
vn 0.0000 0.0000 -1.0000
vn 0.0000 -0.5687 -0.8225
vn 0.0000 -0.7851 -0.6193
vn 0.0000 -0.9276 -0.3736
vn 0.0000 -0.0950 0.9955
vn 0.0000 0.0000 1.0000
vn 0.0000 -0.5687 0.8225
vn 0.0000 -0.7851 0.6193
vn 0.0000 -0.9276 0.3736
vn 0.0000 -0.0950 -0.9955
vn -0.7071 0.0000 -0.7071
vn -0.5694 -0.5930 -0.5694
vn -0.6352 -0.4392 -0.6352
vn -0.4075 -0.8173 -0.4075
vn -0.3500 -0.8689 -0.3500
vn 0.7071 0.0000 -0.7071
vn 0.7071 0.0000 0.7071
vn -0.7071 0.0000 0.7071
vn 0.6352 -0.4392 0.6352
vn 0.5265 -0.6675 0.5265
vn 0.3500 -0.8689 0.3500
vn 0.6352 -0.4392 -0.6352
vn 0.5265 -0.6675 -0.5265
vn 0.3500 -0.8689 -0.3500
vn -0.6352 -0.4392 0.6352
vn -0.5265 -0.6675 0.5265
vn -0.3500 -0.8689 0.3500
vn 0.7055 -0.0673 -0.7055
vn -0.7055 -0.0673 -0.7055
vn -0.7055 -0.0673 0.7055
vn 0.7055 -0.0673 0.7055
# 43 vertex normals

vt 0.1407 0.8834 0.0000
vt 0.1629 0.7933 0.0000
vt 0.1764 0.7967 0.0000
vt 0.1542 0.8868 0.0000
vt 0.1501 0.0200 0.0000
vt 0.2702 0.0199 0.0000
vt 0.2701 0.0259 0.0000
vt 0.1505 0.0260 0.0000
vt 0.2700 0.0279 0.0000
vt 0.1496 0.0279 0.0000
vt 0.1791 0.7737 0.0000
vt 0.2787 0.7677 0.0000
vt 0.2847 0.8671 0.0000
vt 0.1791 0.8791 0.0000
vt 0.2906 0.8850 0.0000
vt 0.1891 0.9046 0.0000
vt 0.3002 0.9062 0.0000
vt 0.2012 0.9289 0.0000
vt 0.3053 0.9183 0.0000
vt 0.2081 0.9408 0.0000
vt 0.1758 0.1810 0.0000
vt 0.1767 0.2640 0.0000
vt 0.1684 0.2635 0.0000
vt 0.1686 0.1781 0.0000
vt 0.1644 0.2629 0.0000
vt 0.1644 0.1777 0.0000
vt 0.8511 0.0372 0.0000
vt 0.8511 0.1178 0.0000
vt 0.8242 0.1178 0.0000
vt 0.8242 0.0372 0.0000
vt 0.2283 0.8964 0.0000
vt 0.2147 0.8932 0.0000
vt 0.2364 0.8030 0.0000
vt 0.2499 0.8062 0.0000
vt 0.1313 0.0322 0.0000
vt 0.1328 0.0380 0.0000
vt 0.0186 0.0730 0.0000
vt 0.0168 0.0673 0.0000
vt 0.1341 0.0395 0.0000
vt 0.0193 0.0749 0.0000
vt 0.1914 0.7755 0.0000
vt 0.1914 0.8808 0.0000
vt 0.0857 0.8689 0.0000
vt 0.0917 0.7695 0.0000
vt 0.1814 0.9063 0.0000
vt 0.0799 0.8867 0.0000
vt 0.1693 0.9306 0.0000
vt 0.0702 0.9079 0.0000
vt 0.1623 0.9425 0.0000
vt 0.0652 0.9200 0.0000
vt 0.1530 0.1810 0.0000
vt 0.1602 0.1781 0.0000
vt 0.1605 0.2635 0.0000
vt 0.1522 0.2640 0.0000
vt 0.7973 0.0372 0.0000
vt 0.7973 0.1178 0.0000
vt 0.2413 0.9265 0.0000
vt 0.1518 0.9022 0.0000
vt 0.1553 0.8887 0.0000
vt 0.2449 0.9130 0.0000
vt 0.0312 0.0519 0.0000
vt 0.1471 0.0205 0.0000
vt 0.1483 0.0263 0.0000
vt 0.0329 0.0577 0.0000
vt 0.0335 0.0596 0.0000
vt 0.0794 0.7677 0.0000
vt 0.0734 0.8671 0.0000
vt 0.1691 0.9046 0.0000
vt 0.0675 0.8850 0.0000
vt 0.1569 0.9289 0.0000
vt 0.0579 0.9062 0.0000
vt 0.1500 0.9408 0.0000
vt 0.0528 0.9183 0.0000
vt 0.2937 0.1470 0.0000
vt 0.2107 0.1461 0.0000
vt 0.2078 0.1389 0.0000
vt 0.2932 0.1387 0.0000
vt 0.2074 0.1347 0.0000
vt 0.2926 0.1347 0.0000
vt 0.8645 0.1313 0.0000
vt 0.9452 0.1313 0.0000
vt 0.9452 0.1582 0.0000
vt 0.8645 0.1582 0.0000
vt 0.2673 0.8246 0.0000
vt 0.2650 0.8383 0.0000
vt 0.1734 0.8228 0.0000
vt 0.1759 0.8090 0.0000
vt 0.0328 0.0315 0.0000
vt 0.0333 0.0269 0.0000
vt 0.1234 0.0364 0.0000
vt 0.1232 0.0409 0.0000
vt 0.0335 0.0254 0.0000
vt 0.1243 0.0350 0.0000
vt 0.2829 0.7678 0.0000
vt 0.2888 0.8671 0.0000
vt 0.1832 0.8791 0.0000
vt 0.1832 0.7737 0.0000
vt 0.2947 0.8850 0.0000
vt 0.1932 0.9046 0.0000
vt 0.3043 0.9062 0.0000
vt 0.2053 0.9289 0.0000
vt 0.3094 0.9183 0.0000
vt 0.2122 0.9408 0.0000
vt 0.2937 0.1225 0.0000
vt 0.2932 0.1308 0.0000
vt 0.2078 0.1305 0.0000
vt 0.2107 0.1233 0.0000
vt 0.8645 0.1851 0.0000
vt 0.9452 0.1851 0.0000
vt 0.1403 0.9125 0.0000
vt 0.1579 0.8215 0.0000
vt 0.1716 0.8240 0.0000
vt 0.1539 0.9151 0.0000
vt 0.2154 0.0263 0.0000
vt 0.1256 0.0408 0.0000
vt 0.1251 0.0363 0.0000
vt 0.2146 0.0219 0.0000
vt 0.2143 0.0204 0.0000
vt 0.0835 0.7677 0.0000
vt 0.0775 0.8671 0.0000
vt 0.1732 0.9046 0.0000
vt 0.0716 0.8850 0.0000
vt 0.1610 0.9289 0.0000
vt 0.0620 0.9062 0.0000
vt 0.1541 0.9408 0.0000
vt 0.0569 0.9183 0.0000
vt 0.1767 0.0054 0.0000
vt 0.1758 0.0884 0.0000
vt 0.1686 0.0914 0.0000
vt 0.1684 0.0060 0.0000
vt 0.1644 0.0917 0.0000
vt 0.1644 0.0065 0.0000
vt 0.8511 0.1985 0.0000
vt 0.8511 0.2792 0.0000
vt 0.8242 0.2792 0.0000
vt 0.8242 0.1985 0.0000
vt 0.1534 0.7977 0.0000
vt 0.1671 0.7997 0.0000
vt 0.1534 0.8915 0.0000
vt 0.1397 0.8894 0.0000
vt 0.0238 0.0416 0.0000
vt 0.0244 0.0365 0.0000
vt 0.1268 0.0473 0.0000
vt 0.1265 0.0525 0.0000
vt 0.0247 0.0348 0.0000
vt 0.1277 0.0458 0.0000
vt 0.2750 0.7660 0.0000
vt 0.2810 0.8654 0.0000
vt 0.1753 0.8774 0.0000
vt 0.1753 0.7720 0.0000
vt 0.2868 0.8832 0.0000
vt 0.1853 0.9029 0.0000
vt 0.2964 0.9045 0.0000
vt 0.1974 0.9272 0.0000
vt 0.3015 0.9166 0.0000
vt 0.2044 0.9391 0.0000
vt 0.1522 0.0054 0.0000
vt 0.1605 0.0060 0.0000
vt 0.1602 0.0914 0.0000
vt 0.1530 0.0884 0.0000
vt 0.7973 0.1985 0.0000
vt 0.7973 0.2792 0.0000
vt 0.2098 0.9080 0.0000
vt 0.1191 0.8885 0.0000
vt 0.1221 0.8749 0.0000
vt 0.2128 0.8944 0.0000
vt 0.1344 0.0317 0.0000
vt 0.2542 0.0279 0.0000
vt 0.2543 0.0339 0.0000
vt 0.1350 0.0376 0.0000
vt 0.2543 0.0359 0.0000
vt 0.2911 0.7695 0.0000
vt 0.2971 0.8688 0.0000
vt 0.3029 0.8867 0.0000
vt 0.2014 0.9063 0.0000
vt 0.3125 0.9079 0.0000
vt 0.2135 0.9306 0.0000
vt 0.3176 0.9200 0.0000
vt 0.2204 0.9425 0.0000
vt 0.1181 0.1461 0.0000
vt 0.0351 0.1470 0.0000
vt 0.0357 0.1387 0.0000
vt 0.1211 0.1389 0.0000
vt 0.0362 0.1347 0.0000
vt 0.1215 0.1347 0.0000
vt 0.7032 0.1313 0.0000
vt 0.7839 0.1313 0.0000
vt 0.7839 0.1582 0.0000
vt 0.7032 0.1582 0.0000
vt 0.1524 0.9071 0.0000
vt 0.1547 0.8933 0.0000
vt 0.2462 0.9092 0.0000
vt 0.2438 0.9229 0.0000
vt 0.1292 0.0524 0.0000
vt 0.1287 0.0473 0.0000
vt 0.2303 0.0309 0.0000
vt 0.2312 0.0360 0.0000
vt 0.2300 0.0292 0.0000
vt 0.0696 0.8654 0.0000
vt 0.0756 0.7660 0.0000
vt 0.1653 0.9029 0.0000
vt 0.0638 0.8832 0.0000
vt 0.1532 0.9272 0.0000
vt 0.0541 0.9045 0.0000
vt 0.1462 0.9391 0.0000
vt 0.0491 0.9166 0.0000
vt 0.1181 0.1233 0.0000
vt 0.1211 0.1305 0.0000
vt 0.0357 0.1308 0.0000
vt 0.0351 0.1225 0.0000
vt 0.7032 0.1851 0.0000
vt 0.7839 0.1851 0.0000
# 212 texture coords

g 4way
usemtl _4way_4Waywire_000000000
s off
f 1/1/1 2/2/1 3/3/1 4/4/1 
f 4/5/2 3/6/2 5/7/2 6/8/2 
f 6/8/1 5/7/1 7/9/1 8/10/1 
s 4
f 8/11/2 7/12/2 9/13/2 10/14/2 
f 10/14/3 9/13/3 11/15/3 12/16/3 
f 12/16/4 11/15/4 13/17/4 14/18/4 
f 14/18/5 13/17/5 15/19/5 16/20/5 
s off
f 16/21/6 15/22/6 17/23/6 18/24/6 
f 18/24/7 17/23/7 19/25/7 20/26/7 
s 1
f 2/27/1 1/28/1 21/29/1 22/30/1 
s off
f 23/31/1 24/32/1 25/33/1 26/34/1 
f 24/35/8 27/36/8 28/37/8 25/38/8 
f 27/36/1 29/39/1 30/40/1 28/37/1 
s 4
f 29/41/8 31/42/8 32/43/8 30/44/8 
f 31/42/9 33/45/9 34/46/9 32/43/9 
f 33/45/10 35/47/10 36/48/10 34/46/10 
f 35/47/11 37/49/11 38/50/11 36/48/11 
s off
f 37/51/12 39/52/12 40/53/12 38/54/12 
f 39/52/7 20/26/7 19/25/7 40/53/7 
s 1
f 26/55/1 22/30/1 21/29/1 23/56/1 
s off
f 41/57/1 42/58/1 43/59/1 44/60/1 
f 44/61/13 43/62/13 45/63/13 46/64/13 
f 46/64/1 45/63/1 8/10/1 47/65/1 
s 4
f 47/66/13 8/11/13 10/14/13 48/67/13 
f 48/67/14 10/14/14 49/68/14 50/69/14 
f 50/69/15 49/68/15 51/70/15 52/71/15 
f 52/71/16 51/70/16 53/72/16 54/73/16 
s off
f 54/74/17 53/75/17 55/76/17 56/77/17 
f 56/77/7 55/76/7 57/78/7 58/79/7 
s 1
f 42/80/1 41/81/1 59/82/1 60/83/1 
s off
f 61/84/1 62/85/1 63/86/1 64/87/1 
f 62/88/18 65/89/18 66/90/18 63/91/18 
f 65/89/1 67/92/1 68/93/1 66/90/1 
s 4
f 67/94/18 69/95/18 70/96/18 68/97/18 
f 69/95/19 71/98/19 72/99/19 70/96/19 
f 71/98/20 73/100/20 74/101/20 72/99/20 
f 73/100/21 75/102/21 76/103/21 74/101/21 
s off
f 75/104/22 77/105/22 78/106/22 76/107/22 
f 77/105/7 58/79/7 57/78/7 78/106/7 
s 1
f 64/108/1 60/83/1 59/82/1 61/109/1 
s off
f 79/110/1 80/111/1 81/112/1 82/113/1 
f 82/114/2 81/115/2 83/116/2 84/117/2 
f 84/117/1 83/116/1 68/93/1 85/118/1 
s 4
f 85/119/2 68/97/2 70/96/2 86/120/2 
f 86/120/3 70/96/3 87/121/3 88/122/3 
f 88/122/4 87/121/4 89/123/4 90/124/4 
f 90/124/5 89/123/5 91/125/5 92/126/5 
s off
f 92/127/6 91/128/6 93/129/6 94/130/6 
f 94/130/7 93/129/7 95/131/7 96/132/7 
s 1
f 80/133/1 79/134/1 97/135/1 98/136/1 
s off
f 99/137/1 100/138/1 101/139/1 102/140/1 
f 100/141/8 103/142/8 104/143/8 101/144/8 
f 103/142/1 105/145/1 106/146/1 104/143/1 
s 4
f 105/147/8 107/148/8 108/149/8 106/150/8 
f 107/148/9 109/151/9 110/152/9 108/149/9 
f 109/151/10 111/153/10 112/154/10 110/152/10 
f 111/153/11 113/155/11 114/156/11 112/154/11 
s off
f 113/157/12 115/158/12 116/159/12 114/160/12 
f 115/158/7 96/132/7 95/131/7 116/159/7 
s 1
f 102/161/1 98/136/1 97/135/1 99/162/1 
s off
f 117/163/1 118/164/1 119/165/1 120/166/1 
f 120/167/13 119/168/13 121/169/13 122/170/13 
f 122/170/1 121/169/1 123/171/1 29/39/1 
s 4
f 29/41/13 123/172/13 124/173/13 31/42/13 
f 31/42/14 124/173/14 125/174/14 126/175/14 
f 126/175/15 125/174/15 127/176/15 128/177/15 
f 128/177/16 127/176/16 129/178/16 130/179/16 
s off
f 130/180/17 129/181/17 131/182/17 132/183/17 
f 132/183/7 131/182/7 133/184/7 134/185/7 
s 1
f 118/186/1 117/187/1 135/188/1 136/189/1 
s off
f 137/190/1 138/191/1 139/192/1 140/193/1 
f 138/194/18 141/195/18 142/196/18 139/197/18 
f 141/195/1 106/146/1 143/198/1 142/196/1 
s 4
f 106/150/18 108/149/18 144/199/18 143/200/18 
f 108/149/19 145/201/19 146/202/19 144/199/19 
f 145/201/20 147/203/20 148/204/20 146/202/20 
f 147/203/21 149/205/21 150/206/21 148/204/21 
s off
f 149/207/22 151/208/22 152/209/22 150/210/22 
f 151/208/7 134/185/7 133/184/7 152/209/7 
s 1
f 140/211/1 136/189/1 135/188/1 137/212/1 
s 2
f 60/83/1 21/29/1 1/28/1 42/80/1 
f 42/58/1 1/1/1 4/4/1 43/59/1 
s 4
f 43/62/23 4/5/23 6/8/23 45/63/23 
s 2
f 45/63/1 6/8/1 8/10/1 
s 4
f 49/68/24 10/14/25 12/16/24 
f 49/68/24 12/16/24 14/18/26 51/70/26 
f 51/70/26 14/18/26 16/20/27 53/72/27 
s off
f 27/36/28 24/35/28 120/167/28 122/170/28 
f 27/36/1 122/170/1 29/39/1 
f 23/31/1 117/163/1 120/166/1 24/32/1 
f 104/143/1 106/146/1 141/195/1 
f 104/143/29 141/195/29 138/194/29 101/144/29 
f 101/139/1 138/191/1 137/190/1 102/140/1 
f 21/29/1 135/188/1 117/187/1 23/56/1 
f 60/83/1 98/136/1 135/188/1 21/29/1 
f 102/161/1 137/212/1 135/188/1 98/136/1 
f 64/108/1 80/133/1 98/136/1 60/83/1 
f 64/87/1 63/86/1 81/112/1 80/111/1 
f 66/90/30 83/116/30 81/115/30 63/91/30 
f 66/90/1 68/93/1 83/116/1 
s 4
f 110/152/31 145/201/31 108/149/31 
f 112/154/32 147/203/32 145/201/32 110/152/32 
f 149/205/33 147/203/33 112/154/33 114/156/33 
f 126/175/34 33/45/34 31/42/34 
f 128/177/35 35/47/35 33/45/35 126/175/35 
f 128/177/36 130/179/36 37/49/36 35/47/36 
f 72/99/37 87/121/37 70/96/37 
f 89/123/38 87/121/38 72/99/38 74/101/38 
f 91/125/39 89/123/39 74/101/39 76/103/39 
s off
f 93/129/40 91/128/40 76/107/40 78/106/40 
f 114/160/41 116/159/41 151/208/41 149/207/41 
f 39/52/42 37/51/42 130/180/42 132/183/42 
f 16/21/43 18/24/43 55/76/43 53/75/43 
f 20/26/7 57/78/7 55/76/7 18/24/7 
f 134/185/7 95/131/7 57/78/7 20/26/7 
f 20/26/7 39/52/7 132/183/7 134/185/7 
f 134/185/7 151/208/7 116/159/7 95/131/7 
f 95/131/7 93/129/7 78/106/7 57/78/7 
# 110 polygons - 8 triangles

