# 3ds Max Wavefront OBJ Exporter v0.97b - (c)2007 guruware
# File Created: 24.10.2015 15:28:16

mtllib Curve.mtl

#
# object Curve
#

v  30.0002 0.0000 0.0002
v  30.0002 0.0000 -19.9998
v  -19.9998 0.0000 30.0002
v  0.0002 0.0000 30.0002
v  30.0002 0.0000 20.0002
v  20.0002 0.0000 30.0002
v  30.0002 0.0000 29.0002
v  29.0002 0.0000 30.0002
v  30.0002 3.0000 29.0002
v  29.0002 3.0000 30.0002
v  30.0002 3.0000 30.0002
v  22.2451 74.0296 30.0002
v  30.0002 74.0296 22.2451
v  30.0002 62.8141 30.0002
v  30.0002 83.0840 10.7671
v  10.7670 83.0840 30.0002
v  30.0002 85.9827 3.5709
v  3.5709 85.9827 30.0002
v  30.0002 80.0000 3.0002
v  3.0002 80.0000 30.0002
v  30.0002 80.0000 0.0002
v  0.0002 80.0000 30.0002
v  30.0002 80.0000 -2.9998
v  -2.9998 80.0000 30.0002
v  30.0002 85.9827 -3.5705
v  -3.5706 85.9827 30.0002
v  30.0002 83.0840 -10.7666
v  -10.7667 83.0840 30.0002
v  30.0002 74.0296 -22.2447
v  -22.2447 74.0296 30.0002
v  30.0002 62.8141 -29.9998
v  -29.9998 62.8141 30.0002
v  30.0002 3.0000 -29.9998
v  -29.9998 3.0000 30.0002
v  30.0002 3.0000 -28.9998
v  -28.9998 3.0000 30.0002
v  30.0002 0.0000 -28.9998
v  -28.9998 0.0000 30.0002
# 38 vertices

vn 0.0000 1.0000 -0.0000
vn -0.7071 0.0000 -0.7071
vn -0.5694 -0.5930 -0.5694
vn -0.6352 -0.4392 -0.6352
vn -0.4075 -0.8173 -0.4075
vn -0.3500 -0.8689 -0.3500
vn 0.7055 -0.0673 0.7055
vn 0.0000 -1.0000 -0.0000
vn -0.7055 -0.0673 -0.7055
vn 0.4815 -0.7323 0.4815
vn 0.3500 -0.8689 0.3500
vn 0.6043 -0.5192 0.6043
vn 0.6941 -0.1911 0.6941
vn 0.7071 0.0000 0.7071
# 14 vertex normals

vt 0.9576 0.1670 0.0000
vt 0.9576 0.2554 0.0000
vt 0.7365 0.0343 0.0000
vt 0.8249 0.0343 0.0000
vt 0.9576 0.0785 0.0000
vt 0.9134 0.0343 0.0000
vt 0.1104 0.8945 0.0000
vt 0.1104 0.9827 0.0000
vt 0.0124 0.8847 0.0000
vt 0.1006 0.8847 0.0000
vt 0.0149 0.0385 0.0000
vt 0.0149 0.0091 0.0000
vt 0.0288 0.0091 0.0000
vt 0.0288 0.0385 0.0000
vt 0.0218 0.0455 0.0000
vt 0.2314 0.8113 0.0000
vt 0.1794 0.8113 0.0000
vt 0.2054 0.7521 0.0000
vt 0.1410 0.8689 0.0000
vt 0.2699 0.8689 0.0000
vt 0.1169 0.8967 0.0000
vt 0.2940 0.8967 0.0000
vt 0.2829 0.1057 0.0000
vt 0.2741 0.1336 0.0000
vt 0.0975 0.0909 0.0000
vt 0.1024 0.0621 0.0000
vt 0.2953 0.0980 0.0000
vt 0.0948 0.0497 0.0000
vt 0.3078 0.0904 0.0000
vt 0.0872 0.0373 0.0000
vt 0.3165 0.0625 0.0000
vt 0.0921 0.0085 0.0000
vt 0.2709 0.9407 0.0000
vt 0.2557 0.9582 0.0000
vt 0.1138 0.9582 0.0000
vt 0.0986 0.9407 0.0000
vt 0.2951 0.9044 0.0000
vt 0.0744 0.9044 0.0000
vt 0.3115 0.8671 0.0000
vt 0.0580 0.8671 0.0000
vt 0.3115 0.6884 0.0000
vt 0.0580 0.6883 0.0000
vt 0.3775 0.0256 0.0000
vt 0.3804 0.0285 0.0000
vt 0.0355 0.0285 0.0000
vt 0.0383 0.0256 0.0000
vt 0.3775 0.0134 0.0000
vt 0.0383 0.0134 0.0000
vt 0.3689 0.9311 0.0000
vt 0.3689 0.9800 0.0000
vt 0.0483 0.6594 0.0000
vt 0.0972 0.6594 0.0000
# 52 texture coords

g Curve
usemtl _Curvewire_000000000
s 2
f 1/1/1 2/2/1 3/3/1 4/4/1 
f 5/5/1 1/1/1 4/4/1 6/6/1 
f 7/7/1 5/8/1 6/9/1 8/10/1 
s 4
f 9/11/2 7/12/2 8/13/2 10/14/2 
s 2
f 10/14/1 11/15/1 9/11/1 
s 4
f 12/16/3 13/17/3 14/18/4 
f 15/19/5 13/17/3 12/16/3 16/20/5 
f 17/21/6 15/19/5 16/20/5 18/22/6 
s 2
f 19/23/7 17/24/7 18/25/7 20/26/7 
s 4
f 21/27/8 19/23/8 20/26/8 22/28/8 
f 23/29/8 21/27/8 22/28/8 24/30/8 
s 2
f 25/31/9 23/29/9 24/30/9 26/32/9 
s 4
f 27/33/10 25/34/11 26/35/11 28/36/10 
f 29/37/12 27/33/10 28/36/10 30/38/12 
f 31/39/13 29/37/12 30/38/12 32/40/13 
f 33/41/14 31/39/13 32/40/13 34/42/14 
s 2
f 35/43/1 33/44/1 34/45/1 36/46/1 
s 4
f 37/47/14 35/43/14 36/46/14 38/48/14 
s 2
f 2/49/1 37/50/1 38/51/1 3/52/1 
# 17 polygons - 2 triangles

