# 3ds Max Wavefront OBJ Exporter v0.97b - (c)2007 guruware
# File Created: 06.12.2015 14:29:34

mtllib ManyBoxesIllusion.mtl

#
# object Box003
#

v  -12.2670 16.3082 9.6206
v  -16.2670 16.3082 9.6206
v  -16.2670 8.3082 9.6206
v  -12.2670 8.3082 9.6206
v  -12.2670 16.3082 -6.3794
v  -12.2670 8.3082 -6.3794
v  -16.2670 8.3082 -6.3794
v  -16.2670 16.3082 -6.3794
v  -7.9547 -6.0697 1.7147
v  -7.9547 -2.0697 1.7147
v  -7.9547 -2.0697 9.7147
v  -7.9547 -6.0697 9.7147
v  -23.9547 -6.0697 1.7147
v  -23.9547 -6.0697 9.7147
v  -23.9547 -2.0697 9.7147
v  -23.9547 -2.0697 1.7147
v  -31.5932 8.1373 5.5859
v  -31.5932 8.1373 1.5859
v  -23.5932 8.1373 1.5859
v  -23.5932 8.1373 5.5859
v  -31.5932 24.1373 5.5859
v  -23.5932 24.1373 5.5859
v  -23.5932 24.1373 1.5859
v  -31.5932 24.1373 1.5859
v  -31.4218 16.3082 22.6990
v  -35.4218 16.3082 22.6990
v  -35.4218 8.3082 22.6990
v  -31.4218 8.3082 22.6990
v  -31.4218 16.3082 6.6990
v  -31.4218 8.3082 6.6990
v  -35.4218 8.3082 6.6990
v  -35.4218 16.3082 6.6990
v  -11.8626 11.3582 19.8244
v  -11.8626 15.3582 19.8244
v  -11.8626 15.3582 27.8244
v  -11.8626 11.3582 27.8244
v  -27.8626 11.3582 19.8244
v  -27.8626 11.3582 27.8244
v  -27.8626 15.3582 27.8244
v  -27.8626 15.3582 19.8244
v  -31.4380 19.9142 26.2103
v  -31.4380 19.9142 22.2103
v  -23.4380 19.9142 22.2103
v  -23.4380 19.9142 26.2103
v  -31.4380 35.9142 26.2103
v  -23.4380 35.9142 26.2103
v  -23.4380 35.9142 22.2103
v  -31.4380 35.9142 22.2103
v  -19.6901 35.7091 22.3421
v  -23.6901 35.7091 22.3421
v  -23.6901 27.7091 22.3421
v  -19.6901 27.7091 22.3421
v  -19.6901 35.7091 6.3421
v  -19.6901 27.7091 6.3421
v  -23.6901 27.7091 6.3421
v  -23.6901 35.7091 6.3421
v  -3.6848 35.8863 14.3958
v  -3.6848 39.8863 14.3958
v  -3.6848 39.8863 22.3958
v  -3.6848 35.8863 22.3958
v  -19.6848 35.8863 14.3958
v  -19.6848 35.8863 22.3958
v  -19.6848 39.8863 22.3958
v  -19.6848 39.8863 14.3958
v  -14.4442 22.3802 11.6985
v  -14.4442 22.3802 7.6985
v  -6.4442 22.3802 7.6985
v  -6.4442 22.3802 11.6985
v  -14.4442 38.3802 11.6985
v  -6.4442 38.3802 11.6985
v  -6.4442 38.3802 7.6985
v  -14.4442 38.3802 7.6985
v  -3.0187 38.1896 8.5235
v  -7.0187 38.1896 8.5235
v  -7.0187 30.1896 8.5235
v  -3.0187 30.1896 8.5235
v  -3.0187 38.1896 -7.4765
v  -3.0187 30.1896 -7.4765
v  -7.0187 30.1896 -7.4765
v  -7.0187 38.1896 -7.4765
v  4.3191 15.8700 2.4306
v  4.3191 19.8700 2.4306
v  4.3191 19.8700 10.4306
v  4.3191 15.8700 10.4306
v  -11.6809 15.8700 2.4306
v  -11.6809 15.8700 10.4306
v  -11.6809 19.8700 10.4306
v  -11.6809 19.8700 2.4306
v  -4.0000 -0.0000 2.0000
v  -4.0000 -0.0000 -2.0000
v  4.0000 0.0000 -2.0000
v  4.0000 0.0000 2.0000
v  -4.0000 16.0000 2.0000
v  4.0000 16.0000 2.0000
v  4.0000 16.0000 -2.0000
v  -4.0000 16.0000 -2.0000
# 96 vertices

vn -0.0000 -0.0000 1.0000
vn 0.0000 0.0000 -1.0000
vn 1.0000 0.0000 0.0000
vn 0.0000 -1.0000 0.0000
vn -1.0000 -0.0000 -0.0000
vn -0.0000 1.0000 -0.0000
vn -0.0000 0.0000 1.0000
vn 0.0000 -0.0000 -1.0000
vn 1.0000 -0.0000 -0.0000
vn -0.0000 -0.0000 -1.0000
vn -1.0000 0.0000 -0.0000
vn -1.0000 -0.0000 0.0000
vn -1.0000 0.0000 0.0000
# 13 vertex normals

vt 1.0000 0.0000 0.0000
vt 1.0000 1.0000 0.0000
vt 0.0000 1.0000 0.0000
vt 0.0000 0.0000 0.0000
# 4 texture coords

g Box003
usemtl wire_225087143
s 2
f 1/1/1 2/2/1 3/3/1 4/4/1 
s 4
f 5/4/2 6/1/2 7/2/2 8/3/2 
s 8
f 1/4/3 4/1/3 6/2/3 5/3/3 
s 16
f 4/4/4 3/1/4 7/2/4 6/3/4 
s 32
f 3/4/5 2/1/5 8/2/5 7/3/5 
s 64
f 2/4/6 1/1/6 5/2/6 8/3/6 
s 2
f 9/1/3 10/2/3 11/3/3 12/4/3 
s 4
f 13/4/5 14/1/5 15/2/5 16/3/5 
s 8
f 9/4/4 12/1/4 14/2/4 13/3/4 
s 16
f 12/4/7 11/1/7 15/2/7 14/3/7 
s 32
f 11/4/6 10/1/6 16/2/6 15/3/6 
s 64
f 10/4/8 9/1/8 13/2/8 16/3/8 
s 2
f 17/1/4 18/2/4 19/3/4 20/4/4 
s 4
f 21/4/6 22/1/6 23/2/6 24/3/6 
s 8
f 17/4/1 20/1/1 22/2/1 21/3/1 
s 16
f 20/4/3 19/1/3 23/2/9 22/3/9 
s 32
f 19/4/10 18/1/10 24/2/10 23/3/10 
s 64
f 18/4/11 17/1/11 21/2/12 24/3/12 
s 2
f 25/1/1 26/2/1 27/3/1 28/4/1 
s 4
f 29/4/2 30/1/2 31/2/2 32/3/2 
s 8
f 25/4/3 28/1/3 30/2/3 29/3/3 
s 16
f 28/4/4 27/1/4 31/2/4 30/3/4 
s 32
f 27/4/5 26/1/5 32/2/5 31/3/5 
s 64
f 26/4/6 25/1/6 29/2/6 32/3/6 
s 2
f 33/1/3 34/2/3 35/3/3 36/4/3 
s 4
f 37/4/5 38/1/5 39/2/5 40/3/5 
s 8
f 33/4/4 36/1/4 38/2/4 37/3/4 
s 16
f 36/4/7 35/1/7 39/2/7 38/3/7 
s 32
f 35/4/6 34/1/6 40/2/6 39/3/6 
s 64
f 34/4/8 33/1/8 37/2/8 40/3/8 
s 2
f 41/1/4 42/2/4 43/3/4 44/4/4 
s 4
f 45/4/6 46/1/6 47/2/6 48/3/6 
s 8
f 41/4/1 44/1/1 46/2/1 45/3/1 
s 16
f 44/4/3 43/1/3 47/2/9 46/3/9 
s 32
f 43/4/2 42/1/2 48/2/2 47/3/2 
s 64
f 42/4/11 41/1/11 45/2/12 48/3/12 
s 2
f 49/1/1 50/2/1 51/3/1 52/4/1 
s 4
f 53/4/2 54/1/2 55/2/2 56/3/2 
s 8
f 49/4/3 52/1/3 54/2/3 53/3/3 
s 16
f 52/4/4 51/1/4 55/2/4 54/3/4 
s 32
f 51/4/5 50/1/5 56/2/5 55/3/5 
s 64
f 50/4/6 49/1/6 53/2/6 56/3/6 
s 2
f 57/1/3 58/2/3 59/3/3 60/4/3 
s 4
f 61/4/5 62/1/5 63/2/5 64/3/5 
s 8
f 57/4/4 60/1/4 62/2/4 61/3/4 
s 16
f 60/4/7 59/1/7 63/2/7 62/3/7 
s 32
f 59/4/6 58/1/6 64/2/6 63/3/6 
s 64
f 58/4/8 57/1/8 61/2/8 64/3/8 
s 2
f 65/1/4 66/2/4 67/3/4 68/4/4 
s 4
f 69/4/6 70/1/6 71/2/6 72/3/6 
s 8
f 65/4/1 68/1/1 70/2/1 69/3/1 
s 16
f 68/4/3 67/1/3 71/2/3 70/3/3 
s 32
f 67/4/2 66/1/2 72/2/2 71/3/2 
s 64
f 66/4/13 65/1/13 69/2/13 72/3/13 
s 2
f 73/1/1 74/2/1 75/3/1 76/4/1 
s 4
f 77/4/2 78/1/2 79/2/2 80/3/2 
s 8
f 73/4/3 76/1/3 78/2/3 77/3/3 
s 16
f 76/4/4 75/1/4 79/2/4 78/3/4 
s 32
f 75/4/5 74/1/5 80/2/5 79/3/5 
s 64
f 74/4/6 73/1/6 77/2/6 80/3/6 
s 2
f 81/1/3 82/2/3 83/3/3 84/4/3 
s 4
f 85/4/5 86/1/5 87/2/5 88/3/5 
s 8
f 81/4/4 84/1/4 86/2/4 85/3/4 
s 16
f 84/4/7 83/1/7 87/2/7 86/3/7 
s 32
f 83/4/6 82/1/6 88/2/6 87/3/6 
s 64
f 82/4/8 81/1/8 85/2/8 88/3/8 
s 2
f 89/1/4 90/2/4 91/3/4 92/4/4 
s 4
f 93/4/6 94/1/6 95/2/6 96/3/6 
s 8
f 89/4/1 92/1/1 94/2/1 93/3/1 
s 16
f 92/4/3 91/1/3 95/2/9 94/3/9 
s 32
f 91/4/2 90/1/2 96/2/2 95/3/2 
s 64
f 90/4/11 89/1/11 93/2/12 96/3/12 
# 72 polygons

#
# object Box013
#

v  -99.1332 108.7405 -84.4384
v  -99.1332 108.7405 -85.4384
v  -98.1332 108.7405 -85.4384
v  -98.1332 108.7405 -84.4384
v  -99.1332 109.7405 -84.4384
v  -98.1332 109.7405 -84.4384
v  -98.1332 109.7405 -85.4384
v  -99.1332 109.7405 -85.4384
# 8 vertices

vn 0.0000 -1.0000 -0.0000
vn 0.0000 1.0000 -0.0000
vn 0.0000 0.0000 1.0000
vn 1.0000 0.0000 -0.0000
vn 0.0000 0.0000 -1.0000
vn -1.0000 0.0000 -0.0000
# 6 vertex normals

vt 1.0000 0.0000 0.0000
vt 1.0000 1.0000 0.0000
vt 0.0000 1.0000 0.0000
vt 0.0000 0.0000 0.0000
# 4 texture coords

g Box013
usemtl wire_177028149
s 2
f 97/5/14 98/6/14 99/7/14 100/8/14 
s 4
f 101/8/15 102/5/15 103/6/15 104/7/15 
s 8
f 97/8/16 100/5/16 102/6/16 101/7/16 
s 16
f 100/8/17 99/5/17 103/6/17 102/7/17 
s 32
f 99/8/18 98/5/18 104/6/18 103/7/18 
s 64
f 98/8/19 97/5/19 101/6/19 104/7/19 
# 6 polygons

