# 3ds Max Wavefront OBJ Exporter v0.97b - (c)2007 guruware
# File Created: 06.12.2015 13:25:05

mtllib OverlapCubeIllusion.mtl

#
# object Box001
#

v  3.6401 0.4513 2.1395
v  38.6401 0.4513 2.1395
v  38.6401 0.4513 3.0000
v  3.6401 0.4513 3.0000
v  38.6401 20.4513 2.1395
v  38.6401 20.4513 3.0000
v  3.6401 20.4513 2.1395
v  3.6401 20.4513 3.0000
v  5.8208 18.2706 2.1395
v  5.8208 2.6320 2.1395
v  36.4595 18.2706 2.1395
v  36.4595 2.6320 2.1395
v  36.4595 2.6320 3.0000
v  5.8208 2.6320 3.0000
v  36.4595 18.2706 3.0000
v  5.8208 18.2706 3.0000
v  37.9357 0.4708 2.3255
v  37.9357 2.6234 2.3255
v  38.6188 2.6234 2.3255
v  38.6188 0.4708 2.3255
v  37.9357 -0.8404 24.8286
v  38.6188 -0.8404 24.8286
v  38.6188 1.3122 24.8286
v  37.9357 1.3122 24.8286
v  37.9357 18.2820 2.3255
v  37.9357 20.4346 2.3255
v  38.6188 20.4346 2.3255
v  38.6188 18.2820 2.3255
v  37.9357 15.8887 24.8286
v  38.6188 15.8887 24.8286
v  38.6188 18.0413 24.8286
v  37.9357 18.0413 24.8286
v  -16.1605 8.6605 1.1033
v  18.8395 8.6605 1.1033
v  18.8395 8.6605 1.9328
v  -16.1605 8.6605 1.9328
v  18.8395 30.6321 1.1033
v  18.8395 30.6321 1.9328
v  -16.1605 30.6321 1.1033
v  -16.1605 30.6321 1.9328
v  -13.9798 28.4514 1.1033
v  -13.9798 10.8411 1.1033
v  16.6588 28.4514 1.1033
v  16.6588 10.8411 1.1033
v  16.6588 10.8411 1.9328
v  -13.9798 10.8411 1.9328
v  16.6588 28.4514 1.9328
v  -13.9798 28.4514 1.9328
v  -15.9776 8.5938 -20.7094
v  -15.9776 10.7464 -20.7094
v  -15.2944 10.7464 -20.7094
v  -15.2944 8.5938 -20.7094
v  -15.9776 8.5938 1.7937
v  -15.2944 8.5938 1.7937
v  -15.2944 10.7464 1.7937
v  -15.9776 10.7464 1.7937
v  -15.9776 28.3766 -20.7094
v  -15.9776 30.5292 -20.7094
v  -15.2944 30.5292 -20.7094
v  -15.2944 28.3766 -20.7094
v  -15.9776 28.3766 1.7937
v  -15.2944 28.3766 1.7937
v  -15.2944 30.5292 1.7937
v  -15.9776 30.5292 1.7937
# 64 vertices

vn 0.0000 -1.0000 -0.0000
vn 1.0000 0.0000 -0.0000
vn 0.0000 1.0000 0.0000
vn -1.0000 0.0000 -0.0000
vn 0.0000 0.0000 -1.0000
vn 0.0000 -0.0000 1.0000
vn 0.0000 -0.9983 -0.0582
vn 0.0000 0.9983 0.0582
vn 0.0000 -0.9944 -0.1058
vn 0.0000 0.9944 0.1058
vn -0.0000 0.0000 -1.0000
vn 0.0000 -0.0000 -1.0000
vn 0.0000 0.0000 1.0000
vn -0.0000 -0.0000 1.0000
# 14 vertex normals

vt 0.0000 0.0000 0.0000
vt 1.0000 0.0000 0.0000
vt 1.0000 1.0000 0.0000
vt 0.0000 1.0000 0.0000
# 4 texture coords

g Box001
usemtl wire_224086086
s 8
f 1/1/1 2/2/1 3/3/1 4/4/1 
s 16
f 2/1/2 5/2/2 6/3/2 3/4/2 
s 32
f 5/1/3 7/2/3 8/3/3 6/4/3 
s 64
f 7/1/4 1/2/4 4/3/4 8/4/4 
s off
f 1/2/5 7/1/5 9/3/5 10/2/5 
f 7/2/5 5/1/5 11/4/5 9/3/5 
f 5/2/5 2/1/5 12/1/5 11/4/5 
f 2/2/5 1/1/5 10/2/5 12/1/5 
f 4/4/6 3/3/6 13/2/6 14/1/6 
f 3/4/6 6/3/6 15/3/6 13/2/6 
f 6/4/6 8/3/6 16/4/6 15/3/6 
f 8/4/6 4/3/6 14/1/6 16/4/6 
s 1
f 10/2/2 9/3/2 16/4/2 14/1/2 
s 2
f 9/3/1 11/4/1 15/3/1 16/4/1 
s 1
f 11/4/4 12/1/4 13/2/4 15/3/4 
s 2
f 12/1/3 10/2/3 14/1/3 13/2/3 
f 17/2/5 18/3/5 19/4/5 20/1/5 
s 4
f 21/1/6 22/2/6 23/3/6 24/4/6 
s 8
f 17/1/7 20/2/7 22/3/7 21/4/7 
s 16
f 20/1/2 19/2/2 23/3/2 22/4/2 
s 32
f 19/1/8 18/2/8 24/3/8 23/4/8 
s 64
f 18/1/4 17/2/4 21/3/4 24/4/4 
s 2
f 25/2/5 26/3/5 27/4/5 28/1/5 
s 4
f 29/1/6 30/2/6 31/3/6 32/4/6 
s 8
f 25/1/9 28/2/9 30/3/9 29/4/9 
s 16
f 28/1/2 27/2/2 31/3/2 30/4/2 
s 32
f 27/1/10 26/2/10 32/3/10 31/4/10 
s 64
f 26/1/4 25/2/4 29/3/4 32/4/4 
s 8
f 33/1/1 34/2/1 35/3/1 36/4/1 
s 16
f 34/1/2 37/2/2 38/3/2 35/4/2 
s 32
f 37/1/3 39/2/3 40/3/3 38/4/3 
s 64
f 39/1/4 33/2/4 36/3/4 40/4/4 
s off
f 33/2/11 39/1/11 41/3/11 42/2/11 
f 39/2/5 37/1/5 43/4/5 41/3/5 
f 37/2/5 34/1/5 44/1/5 43/4/5 
f 34/2/12 33/1/12 42/2/12 44/1/12 
f 36/4/13 35/3/13 45/2/13 46/1/13 
f 35/4/14 38/3/14 47/3/14 45/2/14 
f 38/4/6 40/3/6 48/4/6 47/3/6 
f 40/4/6 36/3/6 46/1/6 48/4/6 
s 1
f 42/2/2 41/3/2 48/4/2 46/1/2 
s 2
f 41/3/1 43/4/1 47/3/1 48/4/1 
s 1
f 43/4/4 44/1/4 45/2/4 47/3/4 
s 2
f 44/1/3 42/2/3 46/1/3 45/2/3 
f 49/2/12 50/3/12 51/4/12 52/1/12 
s 4
f 53/1/13 54/2/13 55/3/13 56/4/13 
s 8
f 49/1/1 52/2/1 54/3/1 53/4/1 
s 16
f 52/1/2 51/2/2 55/3/2 54/4/2 
s 32
f 51/1/3 50/2/3 56/3/3 55/4/3 
s 64
f 50/1/4 49/2/4 53/3/4 56/4/4 
s 2
f 57/2/12 58/3/12 59/4/12 60/1/12 
s 4
f 61/1/13 62/2/13 63/3/13 64/4/13 
s 8
f 57/1/1 60/2/1 62/3/1 61/4/1 
s 16
f 60/1/2 59/2/2 63/3/2 62/4/2 
s 32
f 59/1/3 58/2/3 64/3/3 63/4/3 
s 64
f 58/1/4 57/2/4 61/3/4 64/4/4 
# 56 polygons

#
# object Box002
#

v  165.9400 -66.0000 187.7320
v  165.9400 -66.0000 186.7320
v  166.9400 -66.0000 186.7320
v  166.9400 -66.0000 187.7320
v  165.9400 -65.0000 187.7320
v  166.9400 -65.0000 187.7320
v  166.9400 -65.0000 186.7320
v  165.9400 -65.0000 186.7320
# 8 vertices

vn 0.0000 -1.0000 -0.0000
vn 0.0000 1.0000 -0.0000
vn 0.0000 0.0000 1.0000
vn 1.0000 0.0000 -0.0000
vn 0.0000 0.0000 -1.0000
vn -1.0000 0.0000 -0.0000
# 6 vertex normals

vt 1.0000 0.0000 0.0000
vt 1.0000 1.0000 0.0000
vt 0.0000 1.0000 0.0000
vt 0.0000 0.0000 0.0000
# 4 texture coords

g Box002
usemtl wire_184228153
s 2
f 65/5/15 66/6/15 67/7/15 68/8/15 
s 4
f 69/8/16 70/5/16 71/6/16 72/7/16 
s 8
f 65/8/17 68/5/17 70/6/17 69/7/17 
s 16
f 68/8/18 67/5/18 71/6/18 70/7/18 
s 32
f 67/8/19 66/5/19 72/6/19 71/7/19 
s 64
f 66/8/20 65/5/20 69/6/20 72/7/20 
# 6 polygons

